<svg width="189" height="40" viewBox="0 0 189 40" fill="none" xmlns="http://www.w3.org/2000/svg">
<g clip-path="url(#clip0_548_1189)">
<path d="M36.9775 25.3425H8.03711V28.414H36.9775V25.3425Z" fill="#050142"/>
<path d="M28.9404 33.4999H0V36.5713H28.9404V33.4999Z" fill="#050142"/>
<path d="M28.9422 0H0V3.07144H28.9422V0Z" fill="#050142"/>
<path d="M44.8984 16.4284H15.958V19.4998H44.8984V16.4284Z" fill="#050142"/>
<path d="M36.9793 8.49133H8.03711V11.5628H36.9793V8.49133Z" fill="#050142"/>
</g>
<g clip-path="url(#clip1_548_1189)">
<path d="M65.6938 6.14841V15.8062H78.8445V18.7253H65.6938V31.876H62.1216V3.22931H81.2392V6.14841H65.6938Z" fill="#050142"/>
<path d="M84.7715 3.22931H88.0567V31.8859H84.7715V3.22931Z" fill="#050142"/>
<path d="M93.6974 11.2642H96.9826V26.0378C96.9826 26.6513 97.0222 27.2549 97.23 27.6606C98.0018 29.036 99.4168 29.8475 100.881 29.8475C101.811 29.8475 102.504 29.234 107.135 26.6018V11.2642H110.42V31.8859H107.412L107.125 29.4121C105.582 31.2427 103.068 32.4994 100.871 32.4994C97.0123 32.4994 93.6875 29.3725 93.6875 25.642V11.2741L93.6974 11.2642Z" fill="#050142"/>
<path d="M119.722 21.4563L114.28 11.2741H117.852L122.522 20.2392H124.67L129.34 11.2741H132.794L127.351 21.4563L133.11 31.8859H129.538L124.59 22.713H122.443L117.456 31.8859H114.002L119.722 21.4563Z" fill="#050142"/>
<path d="M136.158 6.47495V5.29742C136.158 4.04072 137.049 3.22931 138.345 3.22931C139.641 3.22931 140.621 4.04072 140.621 5.29742V6.47495C140.621 7.73165 139.691 8.54305 138.345 8.54305C136.999 8.54305 136.158 7.73165 136.158 6.47495ZM136.722 11.2642H140.007V31.8859H136.722V11.2642Z" fill="#050142"/>
<path d="M150.773 26.0774C150.773 26.6909 150.773 27.2549 151.1 27.7398C152.07 28.9965 153.376 29.8475 154.959 29.8475C155.77 29.8475 156.503 29.4022 159.907 27.3341L161.529 28.5908C160.154 31.0646 157.67 32.4895 154.959 32.4895C150.862 32.4895 147.488 29.2439 147.488 25.266V13.9062H143.025V11.2642H147.488V5.91089H150.773V11.2642H160.025V13.9062H150.773V26.0774Z" fill="#050142"/>
<path d="M168.347 37.358C169.238 37.358 169.643 37.1996 170.128 36.8731C171.227 36.1013 171.632 34.7654 172.483 31.8859H168.06L162.093 11.2642H165.418L170.494 29.323H173.176L177.965 11.2642H181.171L175.284 32.816C174.591 35.3294 173.908 37.2392 172.731 38.298C171.672 39.3172 170.138 40 168.307 40L168.347 37.358Z" fill="#050142"/>
<path d="M184.783 11.947H186.188C186.416 11.947 186.614 11.9767 186.762 12.0459C187.049 12.1746 187.188 12.422 187.188 12.7782C187.188 12.9662 187.148 13.1146 187.069 13.2334C186.99 13.3521 186.891 13.4412 186.752 13.5203C186.871 13.5698 186.96 13.6292 187.02 13.7182C187.079 13.7974 187.118 13.926 187.118 14.1042V14.5198C187.138 14.6385 187.148 14.7276 187.158 14.7869C187.188 14.8859 187.227 14.9452 187.297 14.9749V15.0442H186.782C186.782 15.0442 186.752 14.9848 186.752 14.9452C186.752 14.9057 186.733 14.8265 186.733 14.6979L186.703 14.1833C186.703 13.9854 186.624 13.8469 186.485 13.7776C186.406 13.738 186.287 13.7182 186.119 13.7182H185.199V15.0442H184.783V11.9668V11.947ZM186.139 13.362C186.327 13.362 186.475 13.3224 186.594 13.2433C186.713 13.1641 186.762 13.0256 186.762 12.8178C186.762 12.6001 186.683 12.4516 186.535 12.3725C186.456 12.3329 186.337 12.3131 186.198 12.3131H185.209V13.362H186.149H186.139Z" fill="#050142"/>
<path d="M185.931 16.6571C184.308 16.6571 182.982 15.3411 182.982 13.7084C182.982 12.0756 184.298 10.7596 185.931 10.7596C187.564 10.7596 188.88 12.0756 188.88 13.7084C188.88 15.3411 187.564 16.6571 185.931 16.6571ZM185.931 11.0861C184.487 11.0861 183.309 12.2637 183.309 13.7084C183.309 15.1531 184.487 16.3306 185.931 16.3306C187.376 16.3306 188.553 15.1531 188.553 13.7084C188.553 12.2637 187.376 11.0861 185.931 11.0861Z" fill="#050142"/>
<path d="M160.668 37.3778H168.456V40H164.765C164.102 40 163.449 39.9307 162.806 39.7922L160.609 39.3271L160.668 37.3679V37.3778Z" fill="#050142"/>
</g>
<defs>
<clipPath id="clip0_548_1189">
<rect width="44.8987" height="36.5731" fill="white"/>
</clipPath>
<clipPath id="clip1_548_1189">
<rect width="126.758" height="36.7707" fill="white" transform="translate(62.1216 3.22931)"/>
</clipPath>
</defs>
</svg>
